REM DIRINDEX 1\5,1\2\6,1\2\7,1\3\8,1\3\9,1\4\10,1\4\11,1\4\12
REM DIRNAME folder01,folder02,folder03,folder04,folder05,folder06,folder07,folder08,folder09,folder10,folder11,folder12
TITLE ""
FILE "EJE_DB3000_5th_4B_41.mp3" MP3
  TRACK 01 AUDIO
    TITLE "0:"
    INDEX 01 00:00:00
  TRACK 02 AUDIO
    TITLE "10:cjc026_09768"
    INDEX 01 00:00:05
  TRACK 03 AUDIO
    TITLE "0:"
    INDEX 01 00:01:07
  TRACK 04 AUDIO
    TITLE "11:cjc026_09769"
    INDEX 01 00:01:32
  TRACK 05 AUDIO
    TITLE "0:"
    INDEX 01 00:02:43
  TRACK 06 AUDIO
    TITLE "12:cjc026_09770"
    INDEX 01 00:02:71
  TRACK 07 AUDIO
    TITLE "0:"
    INDEX 01 00:03:72
  TRACK 08 AUDIO
    TITLE "10:cjc026_09771"
    INDEX 01 00:04:21
  TRACK 09 AUDIO
    TITLE "0:"
    INDEX 01 00:05:14
  TRACK 10 AUDIO
    TITLE "11:cjc026_09772"
    INDEX 01 00:05:42
  TRACK 11 AUDIO
    TITLE "0:"
    INDEX 01 00:06:53
  TRACK 12 AUDIO
    TITLE "12:cjc026_09773"
    INDEX 01 00:07:05
  TRACK 13 AUDIO
    TITLE "0:"
    INDEX 01 00:07:74
  TRACK 14 AUDIO
    TITLE "10:cjc026_09774"
    INDEX 01 00:08:26
  TRACK 15 AUDIO
    TITLE "0:"
    INDEX 01 00:09:20
  TRACK 16 AUDIO
    TITLE "11:cjc026_09775"
    INDEX 01 00:09:47
  TRACK 17 AUDIO
    TITLE "0:"
    INDEX 01 00:10:65
  TRACK 18 AUDIO
    TITLE "12:cjc026_09776"
    INDEX 01 00:11:17
  TRACK 19 AUDIO
    TITLE "0:"
    INDEX 01 00:12:11
  TRACK 20 AUDIO
    TITLE "10:cjc026_09777"
    INDEX 01 00:12:38
  TRACK 21 AUDIO
    TITLE "0:"
    INDEX 01 00:13:28
  TRACK 22 AUDIO
    TITLE "11:cjc026_09778"
    INDEX 01 00:13:53
  TRACK 23 AUDIO
    TITLE "0:"
    INDEX 01 00:14:56
  TRACK 24 AUDIO
    TITLE "12:cjc026_09779"
    INDEX 01 00:15:07
  TRACK 25 AUDIO
    TITLE "0:"
    INDEX 01 00:15:74
  TRACK 26 AUDIO
    TITLE "10:cjc026_09780"
    INDEX 01 00:16:26
  TRACK 27 AUDIO
    TITLE "0:"
    INDEX 01 00:17:20
  TRACK 28 AUDIO
    TITLE "11:cjc026_09781"
    INDEX 01 00:17:45
  TRACK 29 AUDIO
    TITLE "0:"
    INDEX 01 00:18:41
  TRACK 30 AUDIO
    TITLE "12:cjc026_09782"
    INDEX 01 00:18:68
  TRACK 31 AUDIO
    TITLE "0:"
    INDEX 01 00:19:62
  TRACK 32 AUDIO
    TITLE "10:cjc026_09783"
    INDEX 01 00:20:12
  TRACK 33 AUDIO
    TITLE "0:"
    INDEX 01 00:21:13
  TRACK 34 AUDIO
    TITLE "11:cjc026_09784"
    INDEX 01 00:21:39
  TRACK 35 AUDIO
    TITLE "0:"
    INDEX 01 00:22:34
  TRACK 36 AUDIO
    TITLE "12:cjc026_09785"
    INDEX 01 00:22:64
  TRACK 37 AUDIO
    TITLE "0:"
    INDEX 01 00:23:63
  TRACK 38 AUDIO
    TITLE "10:cjc026_09786"
    INDEX 01 00:24:16
  TRACK 39 AUDIO
    TITLE "0:"
    INDEX 01 00:25:09
  TRACK 40 AUDIO
    TITLE "11:cjc026_09787"
    INDEX 01 00:25:35
  TRACK 41 AUDIO
    TITLE "0:"
    INDEX 01 00:26:30
  TRACK 42 AUDIO
    TITLE "12:cjc026_09788"
    INDEX 01 00:26:58
  TRACK 43 AUDIO
    TITLE "0:"
    INDEX 01 00:27:51
  TRACK 44 AUDIO
    TITLE "10:cjc026_09789"
    INDEX 01 00:28:02
  TRACK 45 AUDIO
    TITLE "0:"
    INDEX 01 00:28:66
  TRACK 46 AUDIO
    TITLE "11:cjc026_09790"
    INDEX 01 00:29:19
  TRACK 47 AUDIO
    TITLE "0:"
    INDEX 01 00:30:20
  TRACK 48 AUDIO
    TITLE "12:cjc026_09791"
    INDEX 01 00:30:46
  TRACK 49 AUDIO
    TITLE "0:"
    INDEX 01 00:31:35
  TRACK 50 AUDIO
    TITLE "10:cjc026_09792"
    INDEX 01 00:31:63
  TRACK 51 AUDIO
    TITLE "0:"
    INDEX 01 00:32:70
  TRACK 52 AUDIO
    TITLE "11:cjc026_09793"
    INDEX 01 00:33:21
  TRACK 53 AUDIO
    TITLE "0:"
    INDEX 01 00:34:61
  TRACK 54 AUDIO
    TITLE "12:cjc026_09794"
    INDEX 01 00:35:12
  TRACK 55 AUDIO
    TITLE "0:"
    INDEX 01 00:36:19
  TRACK 56 AUDIO
    TITLE "10:cjc026_09795"
    INDEX 01 00:36:44
  TRACK 57 AUDIO
    TITLE "0:"
    INDEX 01 00:37:54
  TRACK 58 AUDIO
    TITLE "11:cjc026_09796"
    INDEX 01 00:38:04
  TRACK 59 AUDIO
    TITLE "0:"
    INDEX 01 00:39:13
  TRACK 60 AUDIO
    TITLE "12:cjc026_09797"
    INDEX 01 00:39:37
  TRACK 61 AUDIO
    TITLE "0:"
    INDEX 01 00:40:46
  TRACK 62 AUDIO
    TITLE "10:cjc026_09798"
    INDEX 01 00:40:72
  TRACK 63 AUDIO
    TITLE "0:"
    INDEX 01 00:42:06
  TRACK 64 AUDIO
    TITLE "11:cjc026_09799"
    INDEX 01 00:42:33
  TRACK 65 AUDIO
    TITLE "0:"
    INDEX 01 00:43:70
  TRACK 66 AUDIO
    TITLE "12:cjc026_09800"
    INDEX 01 00:44:20
  TRACK 67 AUDIO
    TITLE "0:"
    INDEX 01 00:45:30
  TRACK 68 AUDIO
    TITLE "10:cjc026_09801"
    INDEX 01 00:45:57
  TRACK 69 AUDIO
    TITLE "0:"
    INDEX 01 00:46:56
  TRACK 70 AUDIO
    TITLE "11:cjc026_09802"
    INDEX 01 00:47:07
  TRACK 71 AUDIO
    TITLE "0:"
    INDEX 01 00:48:14
  TRACK 72 AUDIO
    TITLE "12:cjc026_09803"
    INDEX 01 00:48:40
  TRACK 73 AUDIO
    TITLE "0:"
    INDEX 01 00:49:39
  TRACK 74 AUDIO
    TITLE "10:cjc026_09804"
    INDEX 01 00:49:65
  TRACK 75 AUDIO
    TITLE "0:"
    INDEX 01 00:50:62
  TRACK 76 AUDIO
    TITLE "11:cjc026_09805"
    INDEX 01 00:51:15
  TRACK 77 AUDIO
    TITLE "0:"
    INDEX 01 00:52:10
  TRACK 78 AUDIO
    TITLE "12:cjc026_09806"
    INDEX 01 00:52:36
  TRACK 79 AUDIO
    TITLE "0:"
    INDEX 01 00:53:31
